<?xml version="1.0" standalone="no"?>
<!DOCTYPE svg PUBLIC "-//W3C//DTD SVG 20010904//EN"
 "http://www.w3.org/TR/2001/REC-SVG-20010904/DTD/svg10.dtd">
<svg version="1.0" xmlns="http://www.w3.org/2000/svg"
 width="512.000000pt" height="512.000000pt" viewBox="0 0 512.000000 512.000000"
 preserveAspectRatio="xMidYMid meet">
<metadata>
Created by potrace 1.15, written by Peter Selinger 2001-2017
</metadata>
<g transform="translate(0.000000,512.000000) scale(0.100000,-0.100000)"
fill="#000000" stroke="none">
<path d="M2730 4341 c-67 -21 -134 -62 -155 -95 -10 -14 -43 -170 -80 -365
-55 -295 -68 -350 -98 -413 -95 -197 -281 -420 -520 -622 -61 -52 -60 -52 -88
-4 -5 10 -33 31 -62 48 l-52 30 -435 0 -435 0 -52 -30 c-39 -22 -61 -44 -83
-83 l-30 -52 0 -915 0 -915 30 -52 c22 -39 44 -61 83 -83 l52 -30 435 0 435 0
52 30 c39 22 61 44 83 83 16 28 30 62 30 75 0 12 3 22 7 22 4 0 77 -33 163
-74 174 -83 247 -110 341 -125 85 -14 1237 -15 1310 -1 131 25 254 114 309
223 26 52 30 71 30 138 l0 79 41 21 c66 33 139 108 170 174 25 51 29 73 29
141 0 44 -7 102 -14 129 l-15 48 58 57 c81 80 116 154 116 246 0 60 -5 80 -32
134 l-33 62 52 57 c28 31 64 83 80 116 36 78 40 193 7 280 -27 72 -101 153
-172 188 -114 55 -132 57 -630 57 l-459 0 6 23 c18 64 57 274 67 361 17 147 6
523 -20 646 -45 219 -108 333 -212 386 -42 21 -61 24 -151 23 -70 0 -121 -6
-158 -18z m220 -253 c62 -101 94 -320 87 -593 -5 -195 -17 -279 -63 -467 l-26
-108 -40 0 c-32 0 -47 -7 -74 -34 -30 -30 -34 -40 -34 -85 0 -42 5 -56 29 -83
l29 -33 604 -6 c442 -4 613 -9 641 -18 54 -17 115 -75 123 -116 8 -46 -24
-115 -71 -151 -133 -102 -138 -115 -71 -218 50 -75 65 -135 47 -189 -14 -40
-38 -64 -106 -102 -109 -62 -120 -90 -76 -194 63 -148 49 -213 -55 -266 -32
-17 -78 -38 -101 -48 -50 -21 -65 -54 -52 -118 12 -61 11 -157 -1 -180 -6 -10
-30 -29 -53 -41 l-42 -23 -630 0 c-725 0 -650 -9 -889 108 -77 38 -172 79
-211 92 l-70 24 -3 628 -2 629 107 84 c148 116 414 383 505 506 41 56 98 141
125 190 89 156 107 214 163 519 27 154 54 287 59 295 4 9 29 18 57 21 27 3 55
7 62 7 7 1 21 -13 32 -30z m-1350 -2248 l0 -840 -360 0 -360 0 0 840 0 840
360 0 360 0 0 -840z"/>
</g>
</svg>
